:SAMPLES-PER-SECOND 30
:FULLY-SPECIFIED
:DEGREES
31
root  67.5967 40.1342 -28.4076 -178.963 -85.8495 -178.759
RightUpLeg  -2.8795 -7.86904 -2.24359
RightLeg  11.7183 -4.9305 0.506938
RightFoot  -14.3363 -0.0924917 0.184925
RightToes  -1.74624e-010 0 -3.6325e-017
Spine  1.31897 0.136015 3.15695
Spine1  8.21336 0.389175 -1.07142
HEad  -8.08395 1.65926 -4.11154
LeftShoulder1  6.18284 -8.90977 -43.3035
LeftArm  -14.3031 15.3328 -25.4125
LeftForeArm  22.6017 -31.5547 -5.65122
LeftHand  -0.244104 0.0205437 5.32207
RightShoulder  4.35051 7.14449 34.8972
RightArm  -11.4865 -26.0144 30.3213
RightForeArm  -6.38913 41.1285 10.1803
RightHand  -1.08164 1.41467 -18.5131
LeftUpLeg  -0.0207911 6.05958 3.86674
LeftLeg  7.34024 6.72449 -2.30664
LeftFoot  -12.002 0.0411761 -5.33795
LeftToes  9.06232e-013 -1.14826e-010 3.0111e-013
32
root  67.1564 40.0658 -28.6615 -177.762 -85.9552 -179.7
RightUpLeg  -2.59763 -8.0542 -1.93508
RightLeg  12.3539 -5.43671 0.116774
RightFoot  -15.7975 -0.100941 0.144041
RightToes  -1.74624e-010 0 -3.6325e-017
Spine  1.54575 -0.292976 2.41899
Spine1  8.57226 -0.388777 0.212636
HEad  -9.76022 2.69876 -5.44377
LeftShoulder1  6.72999 -9.41845 -45.3796
LeftArm  -10.9846 15.9292 -29.3719
LeftForeArm  27.644 -39.1311 -7.39279
LeftHand  -0.244104 0.0205437 5.32207
RightShoulder  4.86119 7.71637 37.2992
RightArm  -14.4318 -28.7043 35.0483
RightForeArm  -9.15069 45.7877 12.1425
RightHand  -1.22204 1.92295 -19.5939
LeftUpLeg  0.19348 6.391 4.16768
LeftLeg  7.92669 6.20346 -2.06649
LeftFoot  -12.7349 0.00333628 -5.98267
LeftToes  9.06232e-013 -1.14826e-010 3.0111e-013
33
root  66.6856 39.9233 -28.9268 -179.909 -85.8136 -176.457
RightUpLeg  -3.60371 -8.24926 -1.08513
RightLeg  13.7288 -5.89295 -0.618645
RightFoot  -17.0348 -0.0795563 0.710648
RightToes  -1.74624e-010 0 -3.6325e-017
Spine  1.20567 -0.877666 2.08173
Spine1  8.43663 -1.32831 1.38208
HEad  -11.6292 4.20071 -6.92724
LeftShoulder1  6.95543 -9.5029 -46.628
LeftArm  -9.82359 17.7071 -33.3582
LeftForeArm  36.9178 -49.4072 -10.3426
LeftHand  -0.244104 0.0205437 5.32207
RightShoulder  5.41657 8.29487 39.7825
RightArm  -15.7014 -30.1587 37.5641
RightForeArm  -5.12805 51.0792 14.3371
RightHand  -0.893468 0.349079 -17.6056
LeftUpLeg  -1.20501 7.69596 4.49569
LeftLeg  10.1104 5.0203 -1.22816
LeftFoot  -14.3652 -0.0960391 -6.85101
LeftToes  9.06232e-013 -1.14826e-010 3.0111e-013
34
root  66.229 39.6069 -29.1585 176.738 -85.1273 -171.587
RightUpLeg  -6.19232 -8.78164 0.00967256
RightLeg  17.1151 -5.33574 -1.57122
RightFoot  -18.1824 -0.0213593 1.69452
RightToes  -1.74624e-010 0 -3.6325e-017
Spine  0.578233 -1.23527 2.80553
Spine1  8.46968 -1.87459 2.09155
HEad  -13.54 5.48199 -8.67865
LeftShoulder1  7.05705 -9.54934 -47.1498
LeftArm  -7.95104 19.1711 -36.6874
LeftForeArm  46.1824 -59.6673 -14.9552
LeftHand  -0.244104 0.0205437 5.32207
RightShoulder  5.81633 8.7235 41.3522
RightArm  -14.7946 -30.0293 37.8949
RightForeArm  10.7865 56.5799 16.2886
RightHand  -0.0597568 -5.59951 -8.88779
LeftUpLeg  -4.31082 9.14938 4.43262
LeftLeg  14.7754 4.0076 0.664699
LeftFoot  -16.963 -0.289947 -7.93554
LeftToes  9.06232e-013 -1.14826e-010 3.0111e-013
35
root  65.8263 39.0699 -29.3257 170.433 -84.1266 -164.915
RightUpLeg  -8.5058 -8.98563 1.12068
RightLeg  22.3416 -4.61642 -2.35508
RightFoot  -19.9165 0.0293262 2.20161
RightToes  -1.74624e-010 0 -3.6325e-017
Spine  1.93702 -1.21512 5.26997
Spine1  8.34801 -1.64642 1.87275
HEad  -15.7533 5.65988 -10.3369
LeftShoulder1  7.29498 -9.99283 -47.1455
LeftArm  -3.56355 19.089 -38.0128
LeftForeArm  54.5268 -68.1626 -22.1401
LeftHand  -0.244104 0.0205437 5.32207
RightShoulder  6.02506 9.08891 41.6097
RightArm  -12.7112 -29.1637 36.7141
RightForeArm  31.2945 63.5212 19.9
RightHand  -0.0958603 -10.1166 1.90656
LeftUpLeg  -8.03418 7.15271 4.70577
LeftLeg  23.1565 6.38523 3.47168
LeftFoot  -19.4903 -0.510974 -8.82262
LeftToes  9.06232e-013 -1.14826e-010 3.0111e-013
